# xmcd
#
# Track frame offsets:
#	150
#	22150
#	48815
#	78890
#	94515
#	117963
#	144135
#	162710
#	184900
#	197913
#
# Disc length: 2973 seconds
#
# Revision: 1
# Processed by: cddbd v1.4PL0 Copyright (c) Steve Scherf et al.
# Submitted via: EasyCDDAExtractor 5.0.7
#
DISCID=7f0b9b0a
DTITLE=Various Artist - Tinh Vao Thu
DYEAR=1900
DGENRE=
TTITLE0=Trinh Nam Son - Tinh Vao Thu
TTITLE1=Ai Van - Mong Manh
TTITLE2=Y Lan - Tinh
TTITLE3=Thai Thao - Bai Ngoi Ca Tinh Yeu
TTITLE4=Huong Lan - Tan Tac
TTITLE5=Hoa Mi - Em Van Doi Cho
TTITLE6=Anh Khoa - On Em
TTITLE7=Ngoc Bich - Bai Khong Ten So 8
TTITLE8=Kim Anh - Tinh Ca Mua Ha
TTITLE9=Thai Chau - Bay Gio Thang May
EXTD=
EXTT0=
EXTT1=
EXTT2=
EXTT3=
EXTT4=
EXTT5=
EXTT6=
EXTT7=
EXTT8=
EXTT9=
PLAYORDER=
